<svg width="92" height="92" viewBox="0 0 92 92" fill="none" xmlns="http://www.w3.org/2000/svg">
<g filter="url(#filter0_d_17_10)">
<rect x="8" y="4" width="76" height="76" rx="18" fill="url(#paint0_linear_17_10)"/>
<rect x="8.5" y="4.5" width="75" height="75" rx="17.5" stroke="#BCBCBC" stroke-opacity="0.5"/>
</g>
<path d="M45.8281 27.8789C48.6758 27.8789 51.3828 28.3125 53.9492 29.1797C56.5156 30.0352 58.8711 31.2539 61.0156 32.8359C63.1602 34.4062 65.0176 36.2637 66.5879 38.4082C68.1582 40.541 69.3711 42.8965 70.2266 45.4746C71.0938 48.041 71.5273 50.7422 71.5273 53.5781C71.5273 53.9062 71.416 54.1816 71.1934 54.4043C70.9707 54.627 70.7012 54.7383 70.3848 54.7383C70.0566 54.7383 69.7812 54.627 69.5586 54.4043C69.3359 54.1816 69.2246 53.9062 69.2246 53.5781C69.2246 51 68.832 48.5449 68.0469 46.2129C67.2617 43.8691 66.1484 41.7246 64.707 39.7793C63.2773 37.8223 61.5898 36.1289 59.6445 34.6992C57.6992 33.2695 55.5547 32.1621 53.2109 31.377C50.8789 30.5801 48.418 30.1816 45.8281 30.1816C43.25 30.1816 40.7891 30.5801 38.4453 31.377C36.1133 32.1621 33.9688 33.2695 32.0117 34.6992C30.0664 36.1289 28.3789 37.8223 26.9492 39.7793C25.5195 41.7246 24.4121 43.8691 23.627 46.2129C22.8418 48.5449 22.4492 51 22.4492 53.5781C22.4492 53.9062 22.332 54.1816 22.0977 54.4043C21.875 54.627 21.6055 54.7383 21.2891 54.7383C20.9727 54.7383 20.7031 54.627 20.4805 54.4043C20.2578 54.1816 20.1465 53.9062 20.1465 53.5781C20.1465 50.7422 20.5742 48.041 21.4297 45.4746C22.2969 42.8965 23.5156 40.541 25.0859 38.4082C26.6562 36.2637 28.5078 34.4062 30.6406 32.8359C32.7852 31.2539 35.1406 30.0352 37.707 29.1797C40.2734 28.3125 42.9805 27.8789 45.8281 27.8789ZM45.8281 31.7285C48.2539 31.7285 50.5566 32.0977 52.7363 32.8359C54.9277 33.5625 56.9316 34.5938 58.748 35.9297C60.5645 37.2656 62.1406 38.8477 63.4766 40.6758C64.8125 42.4922 65.8496 44.4961 66.5879 46.6875C67.3262 48.8672 67.6953 51.1641 67.6953 53.5781C67.6953 53.9062 67.5781 54.1816 67.3438 54.4043C67.1211 54.627 66.8516 54.7383 66.5352 54.7383C66.207 54.7383 65.9316 54.627 65.709 54.4043C65.498 54.1816 65.3926 53.9062 65.3926 53.5781C65.3926 51.4219 65.0586 49.3711 64.3906 47.4258C63.7344 45.4688 62.8086 43.6758 61.6133 42.0469C60.418 40.418 59.0059 39.0059 57.377 37.8105C55.748 36.6035 53.9551 35.6719 51.998 35.0156C50.041 34.3594 47.9844 34.0312 45.8281 34.0312C43.6719 34.0312 41.6152 34.3594 39.6582 35.0156C37.7129 35.6719 35.9258 36.6035 34.2969 37.8105C32.668 39.0059 31.2559 40.418 30.0605 42.0469C28.8652 43.6758 27.9395 45.4688 27.2832 47.4258C26.627 49.3711 26.2988 51.4219 26.2988 53.5781C26.2988 53.9062 26.1816 54.1816 25.9473 54.4043C25.7246 54.627 25.4492 54.7383 25.1211 54.7383C24.8047 54.7383 24.5352 54.627 24.3125 54.4043C24.1016 54.1816 23.9961 53.9062 23.9961 53.5781C23.9961 51.1641 24.3594 48.8672 25.0859 46.6875C25.8242 44.4961 26.8555 42.4922 28.1797 40.6758C29.5156 38.8477 31.0918 37.2656 32.9082 35.9297C34.7363 34.5938 36.7402 33.5625 38.9199 32.8359C41.1113 32.0977 43.4141 31.7285 45.8281 31.7285ZM45.8281 35.5605C48.3242 35.5605 50.6562 36.0293 52.8242 36.9668C55.0039 37.8926 56.9199 39.1816 58.5723 40.834C60.2246 42.4863 61.5137 44.4023 62.4395 46.582C63.377 48.7617 63.8457 51.0938 63.8457 53.5781C63.8457 53.9062 63.7285 54.1816 63.4941 54.4043C63.2715 54.627 63.002 54.7383 62.6855 54.7383C62.3574 54.7383 62.082 54.627 61.8594 54.4043C61.6484 54.1816 61.543 53.9062 61.543 53.5781C61.543 51.4219 61.1328 49.3945 60.3125 47.4961C59.5039 45.5977 58.3789 43.9277 56.9375 42.4863C55.4961 41.0449 53.8262 39.9141 51.9277 39.0938C50.0293 38.2734 47.9961 37.8633 45.8281 37.8633C43.6602 37.8633 41.627 38.2734 39.7285 39.0938C37.8301 39.9141 36.1602 41.0449 34.7188 42.4863C33.2891 43.9277 32.1699 45.5977 31.3613 47.4961C30.5527 49.3945 30.1484 51.4219 30.1484 53.5781C30.1484 53.9062 30.0312 54.1816 29.7969 54.4043C29.5742 54.627 29.2988 54.7383 28.9707 54.7383C28.6543 54.7383 28.3848 54.627 28.1621 54.4043C27.9512 54.1816 27.8457 53.9062 27.8457 53.5781C27.8457 51.0938 28.3086 48.7617 29.2344 46.582C30.1602 44.4023 31.4434 42.4863 33.084 40.834C34.7363 39.1816 36.6465 37.8926 38.8145 36.9668C40.9941 36.0293 43.332 35.5605 45.8281 35.5605ZM45.8281 39.4102C47.7969 39.4102 49.6367 39.7793 51.3477 40.5176C53.0586 41.2441 54.5586 42.2578 55.8477 43.5586C57.1484 44.8477 58.1621 46.3535 58.8887 48.0762C59.627 49.7871 59.9961 51.6211 59.9961 53.5781C59.9961 53.9062 59.8848 54.1816 59.6621 54.4043C59.4395 54.627 59.1699 54.7383 58.8535 54.7383C58.5254 54.7383 58.25 54.627 58.0273 54.4043C57.8047 54.1816 57.6934 53.9062 57.6934 53.5781C57.6934 51.9492 57.3828 50.4199 56.7617 48.9902C56.1523 47.5488 55.3027 46.2832 54.2129 45.1934C53.123 44.1035 51.8574 43.2539 50.416 42.6445C48.9863 42.0234 47.457 41.7129 45.8281 41.7129C44.1992 41.7129 42.6641 42.0234 41.2227 42.6445C39.793 43.2539 38.5332 44.1035 37.4434 45.1934C36.3652 46.2832 35.5156 47.5488 34.8945 48.9902C34.2852 50.4199 33.9805 51.9492 33.9805 53.5781C33.9805 53.9062 33.8633 54.1816 33.6289 54.4043C33.4062 54.627 33.1367 54.7383 32.8203 54.7383C32.5039 54.7383 32.2344 54.627 32.0117 54.4043C31.7891 54.1816 31.6777 53.9062 31.6777 53.5781C31.6777 51.6211 32.041 49.7871 32.7676 48.0762C33.5059 46.3535 34.5195 44.8477 35.8086 43.5586C37.0977 42.2578 38.5977 41.2441 40.3086 40.5176C42.0195 39.7793 43.8594 39.4102 45.8281 39.4102ZM45.8281 43.2598C47.2578 43.2598 48.5938 43.5293 49.8359 44.0684C51.0898 44.5957 52.1855 45.334 53.123 46.2832C54.0723 47.2207 54.8105 48.3164 55.3379 49.5703C55.877 50.8125 56.1465 52.1484 56.1465 53.5781C56.1465 53.9062 56.0352 54.1816 55.8125 54.4043C55.5898 54.627 55.3203 54.7383 55.0039 54.7383C54.6758 54.7383 54.4004 54.627 54.1777 54.4043C53.9551 54.1816 53.8438 53.9062 53.8438 53.5781C53.8438 52.1133 53.4805 50.7773 52.7539 49.5703C52.0391 48.3516 51.0723 47.3789 49.8535 46.6523C48.6465 45.9258 47.3047 45.5625 45.8281 45.5625C44.3516 45.5625 43.0098 45.9258 41.8027 46.6523C40.5957 47.3789 39.6289 48.3516 38.9023 49.5703C38.1875 50.7773 37.8301 52.1133 37.8301 53.5781C37.8301 53.9062 37.7129 54.1816 37.4785 54.4043C37.2559 54.627 36.9863 54.7383 36.6699 54.7383C36.3418 54.7383 36.0664 54.627 35.8438 54.4043C35.6328 54.1816 35.5273 53.9062 35.5273 53.5781C35.5273 52.1484 35.791 50.8125 36.3184 49.5703C36.8574 48.3164 37.5957 47.2207 38.5332 46.2832C39.4707 45.334 40.5605 44.5957 41.8027 44.0684C43.0566 43.5293 44.3984 43.2598 45.8281 43.2598Z" fill="#6C6C6C"/>
<defs>
<filter id="filter0_d_17_10" x="0" y="0" width="92" height="92" filterUnits="userSpaceOnUse" color-interpolation-filters="sRGB">
<feFlood flood-opacity="0" result="BackgroundImageFix"/>
<feColorMatrix in="SourceAlpha" type="matrix" values="0 0 0 0 0 0 0 0 0 0 0 0 0 0 0 0 0 0 127 0" result="hardAlpha"/>
<feOffset dy="4"/>
<feGaussianBlur stdDeviation="4"/>
<feComposite in2="hardAlpha" operator="out"/>
<feColorMatrix type="matrix" values="0 0 0 0 0 0 0 0 0 0 0 0 0 0 0 0 0 0 0.16 0"/>
<feBlend mode="normal" in2="BackgroundImageFix" result="effect1_dropShadow_17_10"/>
<feBlend mode="normal" in="SourceGraphic" in2="effect1_dropShadow_17_10" result="shape"/>
</filter>
<linearGradient id="paint0_linear_17_10" x1="46" y1="4" x2="46" y2="80" gradientUnits="userSpaceOnUse">
<stop stop-color="#DEDEDE"/>
<stop offset="1" stop-color="white"/>
</linearGradient>
</defs>
</svg>
